<?xml version="1.0" encoding="UTF-8" standalone="no"?>
<!-- Created with Inkscape (http://www.inkscape.org/) -->

<svg
   xmlns:dc="http://purl.org/dc/elements/1.1/"
   xmlns:cc="http://creativecommons.org/ns#"
   xmlns:rdf="http://www.w3.org/1999/02/22-rdf-syntax-ns#"
   xmlns:svg="http://www.w3.org/2000/svg"
   xmlns="http://www.w3.org/2000/svg"
   xmlns:sodipodi="http://sodipodi.sourceforge.net/DTD/sodipodi-0.dtd"
   xmlns:inkscape="http://www.inkscape.org/namespaces/inkscape"
   id="svg2"
   version="1.1"
   inkscape:version="0.48.2 r9819"
   width="108.12833"
   height="108.08303"
   sodipodi:docname="logo_mossco_label.svg">
  <metadata
     id="metadata8">
    <rdf:RDF>
      <cc:Work
         rdf:about="">
        <dc:format>image/svg+xml</dc:format>
        <dc:type
           rdf:resource="http://purl.org/dc/dcmitype/StillImage" />
        <dc:title></dc:title>
      </cc:Work>
    </rdf:RDF>
  </metadata>
  <defs
     id="defs6" />
  <sodipodi:namedview
     pagecolor="#ffffff"
     bordercolor="#666666"
     borderopacity="1"
     objecttolerance="10"
     gridtolerance="10"
     guidetolerance="10"
     inkscape:pageopacity="0"
     inkscape:pageshadow="2"
     inkscape:window-width="1264"
     inkscape:window-height="916"
     id="namedview4"
     showgrid="false"
     inkscape:zoom="2.980144"
     inkscape:cx="131.44907"
     inkscape:cy="54.041517"
     inkscape:window-x="1410"
     inkscape:window-y="30"
     inkscape:window-maximized="0"
     inkscape:current-layer="layer1"
     showguides="true"
     inkscape:guide-bbox="true"
     fit-margin-top="0"
     fit-margin-left="0"
     fit-margin-right="0"
     fit-margin-bottom="0">
    <sodipodi:guide
       orientation="0,1"
       position="17.432048,108.45955"
       id="guide3035" />
    <sodipodi:guide
       orientation="0,1"
       position="157.92095,66.188542"
       id="guide3037" />
    <sodipodi:guide
       orientation="0,1"
       position="-32.324877,-0.62162647"
       id="guide3093" />
    <sodipodi:guide
       orientation="1,0"
       position="112.41068,123.81953"
       id="guide3095" />
    <sodipodi:guide
       orientation="1,0"
       position="264.0812,125.4973"
       id="guide3097" />
  </sodipodi:namedview>
  <g
     inkscape:groupmode="layer"
     id="layer1"
     inkscape:label="Foreground"
     style="display:inline"
     transform="translate(-106.58361,-106.53498)">
    <path
       inkscape:connector-curvature="0"
       id="path3074"
       d="m 152.55854,213.62881 c -1.53092,-0.2439 -2.99971,-0.60111 -3.26396,-0.79379 -0.26426,-0.19268 -4.13381,-4.40855 -8.599,-9.3686 -5.72825,-6.36309 -8.03837,-9.12358 -7.8463,-9.37596 2.23927,-2.94241 5.16582,-6.36279 5.43996,-6.35791 0.19352,0.003 2.59329,2.18528 5.33283,4.84852 5.71466,5.55551 6.04555,5.82044 6.97762,5.5865 0.43171,-0.10835 3.2581,-3.25953 7.69336,-8.57741 8.42612,-10.10293 8.44344,-10.12605 8.18941,-10.92644 -0.10792,-0.34 -1.40598,-1.76921 -2.88458,-3.17603 -7.09183,-6.74749 -8.9958,-8.70829 -8.84288,-9.10679 0.0878,-0.2287 1.57424,-2.02837 3.30328,-3.99927 l 3.14372,-3.58344 4.68799,-0.12933 c 2.57839,-0.0711 4.84778,-0.0767 5.04309,-0.0123 0.26649,0.0878 0.37618,2.56585 0.4395,9.92928 0.0802,9.32239 0.11278,9.83302 0.65313,10.22788 0.47157,0.3446 2.87941,0.41561 14.09179,0.41561 12.72879,0 13.55151,-0.0315 14.00794,-0.53581 0.43036,-0.47555 0.48491,-1.61148 0.48491,-10.09816 0,-9.15412 0.0242,-9.57528 0.56674,-9.86564 0.63973,-0.34237 8.20472,-0.41134 8.6733,-0.0791 0.45133,0.32004 3.80631,4.51829 4.15253,5.19624 0.6161,1.20647 -0.48842,7.91116 -2.17207,13.18495 -5.87165,18.3921 -21.09687,32.0429 -40.37389,36.19886 -3.93037,0.84735 -14.65986,1.07338 -18.89842,0.39811 z"
       style="fill:#8a6538;stroke:none" />
    <path
       inkscape:connector-curvature="0"
       id="path3086"
       d="m 177.00669,173.83184 c -0.54696,-0.40055 -0.5647,-0.78781 -0.46301,-10.11255 0.0805,-7.38613 0.0196,-9.79978 -0.25563,-10.13146 -0.30155,-0.36335 -1.53947,-0.43541 -7.47999,-0.43541 -3.91525,0 -7.34193,-0.0857 -7.61485,-0.19042 -0.8435,-0.32368 -5.11869,-5.9207 -5.11869,-6.70132 0,-0.5472 1.20149,-1.79167 5.27398,-5.46266 2.98851,-2.69387 5.27398,-4.9746 5.27398,-5.26304 0,-0.27996 -2.91531,-4.44043 -6.47848,-9.24547 -6.92942,-9.34457 -7.4972,-10.05495 -8.03655,-10.05495 -0.19192,0 -2.63084,1.72155 -5.41982,3.82566 -6.6584,5.02333 -6.30102,4.8525 -7.45103,3.56181 -0.89566,-1.00523 -3.37151,-4.52946 -3.37584,-4.80532 -0.008,-0.51215 7.99506,-9.57848 8.71264,-9.87014 5.17901,-2.10503 17.00288,-3.0528 24.24657,-1.94356 18.05056,2.76413 33.15635,13.97444 41.03744,30.45473 1.75212,3.66388 3.64489,8.91706 3.64489,10.11599 0,0.55946 -2.32232,3.63627 -3.71312,4.91944 -0.69569,0.64186 -0.88383,0.65925 -7.13387,0.65925 -6.04672,0 -6.43693,0.0329 -6.72263,0.56674 -0.19118,0.35722 -0.30331,4.07731 -0.30331,10.06305 0,8.82776 -0.0377,9.53045 -0.53582,9.98122 -0.47264,0.42773 -1.53703,0.48491 -9.02696,0.48491 -6.87723,0 -8.59925,-0.0792 -9.0599,-0.4165 z"
       style="fill:#a7cbea;stroke:none"
       sodipodi:nodetypes="cscscssssssscsssssssscsc" />
    <path
       inkscape:connector-curvature="0"
       id="path3078"
       d="m 148.79317,189.39418 c -0.64254,-0.51447 -3.16936,-3.01202 -5.61515,-5.55013 -4.01211,-4.16353 -4.54336,-4.61473 -5.43348,-4.61473 -1.1176,0 -1.90017,0.83374 -6.12484,6.52533 l -2.33342,3.14363 -6.96562,0 -6.96563,0 -0.78788,-1.24524 c -2.35611,-3.72381 -4.96263,-10.59683 -6.13149,-16.16783 -0.91872,-4.3788 -1.27111,-12.56491 -0.73405,-17.05251 0.97048,-8.10938 3.96472,-16.30654 8.44108,-23.1087 1.94978,-2.96284 5.99935,-7.90968 6.84586,-8.36272 0.32178,-0.17221 2.25243,-0.26302 4.58806,-0.21579 l 4.03251,0.0815 2.85559,4.24848 c 2.92693,4.35461 3.72679,5.27398 4.58839,5.27398 0.27148,0 2.91209,-1.97774 5.86802,-4.39498 2.95594,-2.41724 5.53378,-4.39499 5.72854,-4.39499 0.36959,0 9.52685,11.81179 9.52685,12.2885 0,0.14994 -0.8818,1.03926 -1.95955,1.97628 -1.07775,0.93701 -3.51697,3.13412 -5.42048,4.88246 -2.76984,2.54404 -3.45925,3.33388 -3.45253,3.95548 0.006,0.5314 0.97732,2.02588 3.07642,4.73218 1.68741,2.17551 3.06805,4.04242 3.06808,4.14868 4e-5,0.10626 -1.85005,2.47955 -4.11131,5.27398 -2.26126,2.79443 -4.18557,5.37028 -4.27625,5.72411 -0.22712,0.88625 0.008,1.17502 6.20575,7.61175 5.04245,5.23716 5.43556,5.72179 5.06936,6.24949 -1.03902,1.49724 -7.76344,9.64655 -8.06826,9.77791 -0.19047,0.0821 -0.87202,-0.2717 -1.51457,-0.78617 z"
       style="fill:#9fb963;stroke:none"
       sodipodi:nodetypes="cssscccsssssccssssssscscsscsccc" />
    <path
       inkscape:connector-curvature="0"
       id="path3082"
       d="m 177.17601,173.22955 c -0.28173,-0.33946 -0.34159,-2.68002 -0.25919,-10.13593 0.10303,-9.32415 0.0854,-9.71045 -0.46163,-10.11087 -0.45595,-0.33376 -2.03594,-0.41633 -7.96681,-0.41633 l -7.39806,0 -2.35759,-3.00324 c -1.29667,-1.65178 -2.3593,-3.15256 -2.3614,-3.33506 -0.002,-0.18251 2.43541,-2.52598 5.41667,-5.20772 3.43893,-3.09342 5.42048,-5.08052 5.42048,-5.43564 0,-0.30787 -2.32746,-3.69985 -5.17212,-7.53774 -2.84468,-3.83789 -6.01961,-8.13166 -7.05542,-9.54172 -1.76183,-2.3984 -2.18069,-2.72496 -3.3014,-2.57395 -0.24172,0.0326 -2.7711,1.82816 -5.62085,3.9902 -2.84974,2.16204 -5.3892,3.93098 -5.64323,3.93098 -0.40288,0 -3.97186,-4.47639 -3.97186,-4.98171 0,-0.10446 1.71392,-2.22366 3.80871,-4.70933 l 3.80871,-4.5194 2.27102,-0.67171 c 9.74427,-2.8821 21.15952,-2.6346 31.41223,0.68105 3.61206,1.16811 9.77866,4.15832 12.89311,6.25191 8.8645,5.95889 15.75855,14.28292 19.78113,23.88419 1.3818,3.29815 2.4978,6.74813 2.4978,7.72168 0,0.3262 -0.82406,1.5955 -1.83125,2.82066 l -1.83124,2.22757 -6.4983,0.004 c -5.51279,0.004 -6.56812,0.0743 -6.95872,0.46491 -0.35217,0.35217 -0.46976,1.16163 -0.50013,3.44274 -0.0218,1.64027 -0.12073,6.1467 -0.21975,10.01428 l -0.18005,7.03198 -8.67727,0.0775 c -7.43717,0.0665 -8.72962,0.0145 -9.04359,-0.36384 z"
       style="fill:#6aa8de;stroke:none"
       sodipodi:nodetypes="cscscscsssscsssscssssssccscscccc" />
    <path
       inkscape:connector-curvature="0"
       id="path3084"
       d="m 147.97239,189.69792 c -0.78118,-0.70661 -3.26014,-3.15334 -5.50881,-5.43718 -3.13446,-3.1835 -4.26254,-4.15242 -4.83449,-4.15242 -0.61377,0 -1.26542,0.68586 -3.67599,3.86897 -1.61149,2.12794 -3.30623,4.30345 -3.76608,4.83448 l -0.8361,0.96551 -7.10271,0 c -8.19315,0 -7.27064,0.34715 -9.34335,-3.51599 -5.9088,-11.01284 -7.77978,-24.35309 -5.17011,-36.86326 1.9418,-9.3086 7.04133,-19.0917 13.27763,-25.47225 l 1.78984,-1.83124 4.6002,0 4.60019,0 3.17274,4.61168 c 1.74501,2.53643 3.40378,4.65574 3.68617,4.7096 0.31513,0.0601 2.29553,-1.36026 5.12748,-3.67745 6.28422,-5.14194 6.38274,-5.20993 7.08121,-4.88675 0.5428,0.25116 8.89747,10.93714 9.64267,12.33339 0.18729,0.35091 0.26331,0.83925 0.16893,1.08519 -0.0944,0.24595 -1.57722,1.67216 -3.29519,3.16937 -4.8653,4.24008 -7.37208,6.70945 -7.37208,7.26206 0,0.27867 1.38442,2.3214 3.07649,4.53939 1.69207,2.21799 3.07649,4.16433 3.07649,4.3252 0,0.16087 -1.91182,2.66144 -4.24848,5.55681 -2.33667,2.89537 -4.24849,5.49171 -4.24849,5.76962 0,0.27793 2.57107,3.15562 5.71348,6.39488 4.12943,4.25669 5.71348,6.08037 5.71348,6.57778 0,0.45077 -1.44277,2.45628 -4.1818,5.81284 -4.87593,5.97524 -4.94101,6.01187 -7.14332,4.01977 z"
       style="fill:#cdd5ae;stroke:none"
       sodipodi:nodetypes="ssssscsssscccscscscssssssssss" />
    <path
       inkscape:connector-curvature="0"
       id="path3080"
       d="m 148.26562,189.42696 c -0.78131,-0.69364 -3.13461,-3.05041 -5.22955,-5.23726 -4.31963,-4.50914 -4.82424,-4.89679 -5.85956,-4.5014 -0.40966,0.15646 -2.19645,2.21723 -4.17484,4.815 l -3.45866,4.54148 -7.23533,0.0784 -7.23532,0.0784 -0.89561,-1.54334 c -7.45077,-12.8394 -9.18773,-29.0312 -4.64072,-43.26041 2.40164,-7.5156 6.49646,-14.58543 11.55151,-19.94406 l 1.94909,-2.06613 4.35431,0 4.35432,0 2.67966,4.02873 c 2.82896,4.25319 3.94631,5.64023 4.5436,5.64023 0.20035,0 2.77971,-1.97775 5.73191,-4.39499 3.76981,-3.08671 5.55751,-4.37318 6.00554,-4.32173 0.44778,0.0514 1.99796,1.85665 5.20073,6.05642 2.50954,3.29074 4.56281,6.20803 4.56281,6.48287 0,0.27484 -1.41739,1.7342 -3.14974,3.24303 -4.81632,4.19485 -7.69122,7.02421 -7.69122,7.56938 0,0.27131 1.38442,2.28773 3.07649,4.48093 1.69206,2.1932 3.07405,4.16221 3.07108,4.37557 -0.003,0.21336 -1.83127,2.65325 -4.06289,5.42198 -2.23162,2.76873 -4.144,5.25949 -4.24973,5.53501 -0.27999,0.72965 0.087,1.17367 6.08699,7.36374 2.99971,3.09477 5.45402,5.79897 5.45402,6.00934 0,0.56731 -8.28491,10.61108 -8.84125,10.71822 -0.26239,0.0505 -1.11633,-0.47566 -1.89764,-1.16931 z"
       style="fill:#aac275;stroke:none"
       sodipodi:nodetypes="cscscccssscccssscssssscscssccc" />
    <path
       inkscape:connector-curvature="0"
       id="path3076"
       d="m 157.53952,214.48302 c -2.33703,-0.17155 -6.26896,-0.7012 -7.38147,-0.99432 -0.91437,-0.24091 -2.3278,-1.66101 -9.12384,-9.16689 -4.42301,-4.88499 -8.21129,-9.15314 -8.41839,-9.48476 -0.34213,-0.54784 -0.13062,-0.91101 2.31372,-3.97282 1.47966,-1.85343 2.90151,-3.45092 3.15967,-3.54999 0.33382,-0.1281 1.94881,1.2625 5.59159,4.8147 5.61471,5.47509 6.2085,5.95873 6.96122,5.66988 0.51824,-0.19887 14.74532,-17.06356 15.35348,-18.19991 0.18253,-0.34108 0.25933,-0.80922 0.17065,-1.04031 -0.0887,-0.2311 -2.4032,-2.50633 -5.14337,-5.05607 -5.40392,-5.02837 -6.70625,-6.38656 -6.70625,-6.99393 0,-0.21691 1.51072,-2.10546 3.35717,-4.19678 3.22904,-3.65728 3.40952,-3.80957 4.72887,-3.99041 1.90833,-0.26156 8.39213,-0.22751 8.82304,0.0464 0.26306,0.16717 0.37656,2.74494 0.4395,9.98137 0.0806,9.26637 0.1134,9.77684 0.6536,10.17159 0.47117,0.3443 2.84281,0.4156 13.82327,0.4156 11.6589,0 13.30995,-0.0554 13.71495,-0.46043 0.39959,-0.39959 0.46042,-1.71296 0.46042,-9.94103 0,-8.29235 0.0587,-9.53925 0.46791,-9.94851 0.39498,-0.39498 1.15777,-0.45533 4.89441,-0.38718 l 4.4265,0.0807 1.55009,1.90449 c 0.85255,1.04747 1.88884,2.38528 2.30288,2.9729 l 0.7528,1.0684 -0.4577,3.47308 c -3.32124,25.20202 -23.53583,44.47636 -48.95025,46.67342 -3.39593,0.29357 -4.96913,0.31603 -7.76447,0.11083 z"
       style="fill:#94734a;stroke:none" />
    <text
       xml:space="preserve"
       style="font-size:22px;font-style:normal;font-variant:normal;font-weight:normal;font-stretch:normal;text-align:start;line-height:100%;letter-spacing:0px;word-spacing:0px;writing-mode:lr-tb;text-anchor:start;fill:#000000;fill-opacity:1;stroke:none;font-family:Bitstream Vera Sans;-inkscape-font-specification:Bitstream Vera Sans"
       x="184.55484"
       y="-30.927168"
       id="text3103"
       sodipodi:linespacing="100%"
       transform="translate(106.58361,106.29016)"><tspan
         sodipodi:role="line"
         id="tspan3105"
         x="184.55484"
         y="-30.927168" /></text>
  </g>
</svg>
